<svg viewBox="0 0 99 25" fill="none" xmlns="http://www.w3.org/2000/svg">
<path d="M56.3777 6.9082H64.1039V16.2167H65.0878V20.5347H63.2114V18.0931H56.1713V20.5347H54.2954V16.2167H55.2415C55.7038 15.2601 56.0093 14.1502 56.1565 12.8865C56.3041 11.6222 56.3777 10.0243 56.3777 8.09118V6.9082ZM58.5289 8.78513C58.5289 12.1828 58.2214 14.6597 57.6063 16.2162H61.8546V8.78513H58.5289Z" fill="#3F4A6A"/>
<path d="M33 6.9082H35.1124V14.3546L39.6432 6.9082H41.8931V18.0931H39.7807V10.7919L35.2575 18.0931H33V6.9082Z" fill="#3F4A6A"/>
<path d="M44.2039 18.0931V6.9082H46.4613V11.3105H50.8854V6.9082H53.1429V18.0931H50.8854V13.2028H46.4613V18.0931H44.2039Z" fill="#3F4A6A"/>
<path d="M66.6365 6.9082H68.7494V14.3546L73.2802 6.9082H75.53V18.0931H73.4171V10.7919L68.894 18.0931H66.6365V6.9082Z" fill="#3F4A6A"/>
<path d="M77.8411 18.0931V6.9082H80.0986V11.3105H84.5226V6.9082H86.7801V18.0931H84.5226V13.2028H80.0986V18.0931H77.8411Z" fill="#3F4A6A"/>
<path d="M96.2683 13.9812L98.4573 14.6757C98.1217 15.8965 97.5638 16.803 96.7832 17.3953C96.0026 17.988 95.0121 18.2844 93.8126 18.2844C92.328 18.2844 91.1076 17.7765 90.1512 16.7621C89.1949 15.7473 88.7178 14.3604 88.7178 12.6005C88.7178 10.7389 89.198 9.29325 90.1589 8.26306C91.1198 7.23287 92.3837 6.71777 93.9495 6.71777C95.3171 6.71777 96.4282 7.12198 97.2823 7.93142C97.7906 8.40921 98.1722 9.096 98.4266 9.99129L96.1916 10.5253C96.0593 9.9453 95.784 9.48743 95.364 9.1517C94.9446 8.81597 94.4348 8.64836 93.835 8.64836C93.0059 8.64836 92.3336 8.94577 91.8177 9.54058C91.3012 10.1354 91.0437 11.0992 91.0437 12.4324C91.0437 13.8468 91.2981 14.854 91.8064 15.4534C92.3147 16.0539 92.9758 16.3538 93.7896 16.3538C94.3893 16.3538 94.9058 16.1632 95.338 15.7815C95.7697 15.4003 96.0798 14.8004 96.2683 13.9812Z" fill="#3F4A6A"/>
<path d="M12.4849 23.8957V18.1198H14.7582L19.3126 10.7679V18.1198H21.4398V6.85772H19.1741L14.6121 14.3557V6.85772H12.4849V1.08231C16.698 1.08231 20.3762 3.36754 22.3512 6.76625L23.2881 6.22509C21.1266 2.50343 17.098 0 12.4849 0C5.58983 0 0 5.59144 0 12.4885C0 19.3861 5.58983 24.977 12.4849 24.977C17.1077 24.977 21.1435 22.4639 23.3014 18.7294L22.3649 18.1883C20.3935 21.6003 16.7077 23.8957 12.4849 23.8957ZM10.3618 18.1137V10.7679L5.80337 18.1137H3.51932V6.86436H5.64296V14.3557L10.2192 6.86436H12.4849V18.1137H10.3618Z" fill="#3F4A6A"/>
</svg>
