<?xml version="1.0" encoding="utf-8"?>
<!-- Generator: Adobe Illustrator 26.0.3, SVG Export Plug-In . SVG Version: 6.00 Build 0)  -->
<svg version="1.1" id="Слой_1" xmlns="http://www.w3.org/2000/svg" xmlns:xlink="http://www.w3.org/1999/xlink" x="0px" y="0px"
	 viewBox="0 0 23.3 25" style="enable-background:new 0 0 23.3 25;" xml:space="preserve">
<style type="text/css">
	.st0{fill:#3F4A6A;}
</style>
<path class="st0" d="M12.5,23.9v-5.8h2.3l4.6-7.4v7.4h2.1V6.9h-2.3l-4.6,7.5V6.9h-2.1V1.1c4.2,0,7.9,2.3,9.9,5.7l0.9-0.5
	C21.1,2.5,17.1,0,12.5,0C5.6,0,0,5.6,0,12.5C0,19.4,5.6,25,12.5,25c4.6,0,8.7-2.5,10.8-6.2l-0.9-0.5C20.4,21.6,16.7,23.9,12.5,23.9z
	 M10.4,18.1v-7.3l-4.6,7.3H3.5V6.9h2.1v7.5l4.6-7.5h2.3v11.2H10.4z"/>
</svg>
