<svg viewBox="0 0 16 16" fill="none" xmlns="http://www.w3.org/2000/svg">
    <path d="M13.8333 0.5H2.16667C1.24167 0.5 0.5 1.24167 0.5 2.16667V5.5H2.16667V2.16667H13.8333V13.8333H2.16667V10.5H0.5V13.8333C0.5 14.2754 0.675595 14.6993 0.988155 15.0118C1.30072 15.3244 1.72464 15.5 2.16667 15.5H13.8333C14.2754 15.5 14.6993 15.3244 15.0118 15.0118C15.3244 14.6993 15.5 14.2754 15.5 13.8333V2.16667C15.5 1.24167 14.75 0.5 13.8333 0.5ZM6.4 10.9833L7.58333 12.1667L11.75 8L7.58333 3.83333L6.4 5.00833L8.55833 7.16667H0.5V8.83333H8.55833L6.4 10.9833Z"/>
</svg>
