<svg viewBox="0 0 16 14" xmlns="http://www.w3.org/2000/svg">
    <path fill-rule="evenodd" clip-rule="evenodd" d="M0.29187 2C0.29187 1.30833 0.850203 0.75 1.54187 0.75C2.23354 0.75 2.79187 1.30833 2.79187 2C2.79187 2.69167 2.23354 3.25 1.54187 3.25C0.850203 3.25 0.29187 2.69167 0.29187 2ZM0.29187 7C0.29187 6.30833 0.850203 5.75 1.54187 5.75C2.23354 5.75 2.79187 6.30833 2.79187 7C2.79187 7.69167 2.23354 8.25 1.54187 8.25C0.850203 8.25 0.29187 7.69167 0.29187 7ZM1.54187 10.75C0.850203 10.75 0.29187 11.3167 0.29187 12C0.29187 12.6833 0.858537 13.25 1.54187 13.25C2.2252 13.25 2.79187 12.6833 2.79187 12C2.79187 11.3167 2.23354 10.75 1.54187 10.75ZM15.7085 12.8333H4.04187V11.1667H15.7085V12.8333ZM4.04187 7.83333H15.7085V6.16667H4.04187V7.83333ZM4.04187 2.83333V1.16667H15.7085V2.83333H4.04187Z"/>
</svg>
